<?xml version="1.0" standalone="no"?>
<!DOCTYPE svg PUBLIC "-//W3C//DTD SVG 20010904//EN"
 "http://www.w3.org/TR/2001/REC-SVG-20010904/DTD/svg10.dtd">
<svg version="1.0" xmlns="http://www.w3.org/2000/svg"
 width="700.000000pt" height="700.000000pt" viewBox="0 0 700.000000 700.000000"
 preserveAspectRatio="xMidYMid meet">
<metadata>
Created by potrace 1.14, written by Peter Selinger 2001-2017
</metadata>
<g transform="translate(0.000000,700.000000) scale(0.100000,-0.100000)"
fill="#000000" stroke="none">
<path d="M1789 5553 c-12 -27 -30 -70 -41 -98 -11 -27 -26 -66 -35 -85 -8 -19
-22 -49 -29 -66 -8 -18 -34 -81 -58 -140 -43 -106 -198 -479 -216 -519 -28
-63 -120 -286 -120 -291 0 -3 -9 -24 -19 -47 -10 -23 -42 -98 -71 -167 -28
-69 -58 -138 -65 -155 -16 -37 -64 -151 -145 -350 -61 -147 -76 -182 -104
-247 -8 -18 -37 -87 -64 -153 -58 -142 -338 -817 -357 -860 -21 -49 -145 -344
-180 -430 -18 -44 -74 -179 -125 -300 -51 -121 -94 -226 -97 -232 -4 -10 116
-13 578 -13 l584 0 309 743 c170 408 317 760 326 782 10 22 46 108 79 190 34
83 68 164 75 180 8 17 80 190 161 385 80 195 157 379 170 407 14 29 27 64 31
78 3 14 9 25 13 25 3 0 55 -118 115 -262 60 -145 117 -281 127 -303 10 -22 41
-96 69 -165 29 -69 58 -138 65 -155 8 -16 53 -124 100 -240 48 -115 93 -223
100 -240 7 -16 30 -70 50 -120 100 -241 138 -333 150 -360 8 -16 24 -55 35
-85 12 -30 28 -68 35 -85 8 -16 35 -82 61 -145 25 -63 54 -133 64 -155 10 -22
27 -65 39 -95 12 -30 26 -64 32 -75 5 -11 35 -83 67 -160 l58 -140 583 -3 582
-2 -7 22 c-4 13 -31 79 -59 148 -29 69 -121 289 -205 490 -84 201 -158 379
-164 395 -7 17 -23 55 -36 85 -13 30 -29 69 -36 85 -6 17 -91 219 -187 450
-96 231 -238 571 -314 755 -77 184 -143 343 -146 353 -6 16 23 17 517 17 410
0 525 -3 529 -12 3 -7 53 -128 112 -268 59 -140 116 -277 127 -305 20 -51 40
-98 64 -149 8 -16 14 -33 14 -37 0 -4 13 -36 28 -71 16 -35 37 -83 47 -108 10
-25 28 -69 41 -98 13 -29 24 -58 24 -65 0 -7 4 -17 8 -23 5 -5 33 -67 62 -139
29 -71 61 -148 71 -170 9 -22 45 -107 79 -190 34 -82 67 -163 74 -180 8 -16
53 -124 100 -240 48 -115 91 -219 96 -230 20 -46 137 -326 180 -432 l34 -83
583 0 c648 0 589 -7 558 65 -8 17 -29 68 -48 115 -20 47 -53 128 -75 180 -22
52 -79 190 -127 305 -48 116 -122 293 -165 395 -42 102 -132 318 -200 480
-118 286 -159 383 -186 445 -7 17 -28 68 -47 115 -42 102 -64 155 -83 195 -7
17 -20 48 -28 70 -8 22 -49 121 -91 220 -42 99 -79 188 -82 198 -5 16 27 17
577 17 462 0 581 3 577 13 -27 64 -92 218 -102 242 -8 17 -68 163 -135 325
-133 320 -263 633 -312 748 l-31 72 -2274 0 -2274 0 -20 -47z"/>
</g>
</svg>
